# xmcd
#
# Track frame offsets:
#	150
#	15378
#	35486
#	48828
#	66279
#	80335
#	96474
#	116432
#	132678
#	155689
#	176746
#	188437
#	203785
#	219224
#	231535
#	251984
#	270428
#	289862
#	302128
#	316200
#	337820
#
# Disc length: 4672 seconds
#
# Revision: 0
# Processed by: cddbd v1.5.2PL0 Copyright (c) Steve Scherf et al.
# Submitted via: dBpowerAMP V4.0
#
DISCID=2e123e15
DTITLE=Magni Christiansen - Eg vil ikki tiga
DYEAR=1900
DGENRE=Gospel
TTITLE0=Hví júst eg
TTITLE1=Hann gongur um
TTITLE2=Gospel Cannonball
TTITLE3=Sangur mín tí ljóða tí skal
TTITLE4=Jesus Kristus er mín Harri
TTITLE5=Ein sjálvvilligur gekk fyri meg
TTITLE6=Nærri mín Guð til tín
TTITLE7=Søguna sig mær um Jesus
TTITLE8=Ein dag eg skal
TTITLE9=Mítt ynskji er at síggja Jesus fyrst
TTITLE10=I saw the light
TTITLE11=Skjótt kemur dafurin hin dýri stóri
TTITLE12=Hvat skal eg geva tær Harri
TTITLE13=If God is for us
TTITLE14=O Jesus frelsari kæri
TTITLE15=Kom innar
TTITLE16=Við vegin
TTITLE17=Takk at tú bart mína byrðu
TTITLE18=Í syndamyrkri
TTITLE19=Eg stundi eftir at lenda har heima
TTITLE20=Thank you Lord for your blessing
EXTD=
EXTT0=
EXTT1=
EXTT2=
EXTT3=
EXTT4=
EXTT5=
EXTT6=
EXTT7=
EXTT8=
EXTT9=
EXTT10=
EXTT11=
EXTT12=
EXTT13=
EXTT14=
EXTT15=
EXTT16=
EXTT17=
EXTT18=
EXTT19=
EXTT20=
PLAYORDER=
